<svg xmlns="http://www.w3.org/2000/svg" viewBox="0 0 120 120" width="120" height="120">
  <defs>
    <clipPath id="cb"><circle cx="60" cy="60" r="58"/></clipPath>
  </defs>
  <g clip-path="url(#cb)">
    <rect width="120" height="120" fill="#d8f3dc"/>
    <!-- shirt -->
    <path d="M28 120 q32 -34 64 0 Z" fill="#2a9d8f"/>
    <!-- face -->
    <circle cx="60" cy="58" r="28" fill="#ffd9b3"/>
    <!-- short hair -->
    <path d="M33 52 q2 -30 27 -30 q25 0 27 30 q-6 -8 -10 -8 q-3 -10 -17 -10 q-14 0 -17 10 q-4 0 -10 8z" fill="#4a3520"/>
    <!-- eyes -->
    <circle cx="50" cy="56" r="3.2" fill="#3b2b20"/>
    <circle cx="70" cy="56" r="3.2" fill="#3b2b20"/>
    <!-- smile -->
    <path d="M50 68 q10 9 20 0" stroke="#b5651d" stroke-width="2.6" fill="none" stroke-linecap="round"/>
    <!-- cheeks -->
    <circle cx="44" cy="64" r="3.5" fill="#ff9aa2" opacity="0.5"/>
    <circle cx="76" cy="64" r="3.5" fill="#ff9aa2" opacity="0.5"/>
  </g>
</svg>
