<svg xmlns="http://www.w3.org/2000/svg" viewBox="0 0 120 120" width="120" height="120">
  <defs>
    <clipPath id="c"><circle cx="60" cy="60" r="58"/></clipPath>
  </defs>
  <g clip-path="url(#c)">
    <rect width="120" height="120" fill="#fde2e4"/>
    <!-- shirt -->
    <path d="M28 120 q32 -34 64 0 Z" fill="#e63946"/>
    <!-- hair back -->
    <path d="M30 64 q-4 -46 30 -46 q34 0 30 46 q2 30 -8 44 l-8 -30 -28 0 -8 30 q-10 -14 -8 -44z" fill="#8a5a2b"/>
    <!-- face -->
    <circle cx="60" cy="58" r="28" fill="#ffd9b3"/>
    <!-- fringe -->
    <path d="M34 50 q4 -28 26 -28 q22 0 26 28 q-13 -12 -26 -12 q-13 0 -26 12z" fill="#8a5a2b"/>
    <!-- eyes -->
    <circle cx="50" cy="56" r="3.2" fill="#3b2b20"/>
    <circle cx="70" cy="56" r="3.2" fill="#3b2b20"/>
    <!-- smile -->
    <path d="M50 68 q10 9 20 0" stroke="#b5651d" stroke-width="2.6" fill="none" stroke-linecap="round"/>
    <!-- cheeks -->
    <circle cx="44" cy="64" r="3.5" fill="#ff9aa2" opacity="0.6"/>
    <circle cx="76" cy="64" r="3.5" fill="#ff9aa2" opacity="0.6"/>
  </g>
</svg>
